<?xml version="1.0" standalone="no"?>
<!DOCTYPE svg PUBLIC "-//W3C//DTD SVG 20010904//EN"
 "http://www.w3.org/TR/2001/REC-SVG-20010904/DTD/svg10.dtd">
<svg version="1.0" xmlns="http://www.w3.org/2000/svg"
 width="1056.000000pt" height="1056.000000pt" viewBox="0 0 1056.000000 1056.000000"
 preserveAspectRatio="xMidYMid meet">
<metadata>
Created by potrace 1.14, written by Peter Selinger 2001-2017
</metadata>
<g transform="translate(0.000000,1056.000000) scale(0.100000,-0.100000)"
fill="#000000" stroke="none">
<path d="M3256 7923 c-2 -2 -41 -6 -87 -8 -46 -2 -95 -7 -109 -9 -14 -3 -36
-8 -50 -11 -14 -3 -34 -7 -45 -9 -53 -12 -159 -52 -239 -93 -190 -95 -354
-247 -462 -428 -28 -47 -74 -139 -74 -149 0 -3 -5 -17 -12 -33 -6 -15 -12 -31
-13 -35 -2 -5 -3 -9 -4 -10 -2 -2 -5 -14 -8 -28 -7 -39 -11 -55 -13 -55 -2 0
-8 -30 -17 -85 -9 -59 -9 -254 0 -305 17 -95 31 -151 39 -159 4 -6 8 -16 8
-24 0 -31 64 -158 129 -257 43 -65 154 -186 230 -249 124 -104 359 -208 526
-231 28 -4 59 -9 70 -12 15 -3 4776 -6 4997 -3 l38 0 -98 133 c-53 72 -100
134 -104 135 -5 2 -8 8 -8 13 0 5 -28 46 -63 92 -34 45 -71 96 -81 112 -11 17
-24 35 -30 41 -6 6 -36 46 -66 89 -30 42 -65 89 -77 104 -13 14 -23 29 -23 34
0 4 -8 15 -17 25 -10 10 -25 29 -33 42 -8 12 -32 45 -53 74 -21 28 -69 94
-107 146 -38 52 -73 100 -78 105 -4 6 -73 100 -152 210 -79 110 -147 202 -150
205 -3 3 -17 21 -30 40 -13 19 -55 78 -94 130 -38 52 -90 123 -115 158 -25 34
-56 75 -68 90 -13 15 -23 32 -23 39 0 6 -4 13 -8 15 -4 2 -34 38 -66 81 -32
43 -63 76 -70 74 -6 -2 -21 0 -33 4 -13 5 -25 4 -28 -1 -3 -5 -16 -6 -28 -1
-12 4 -35 4 -52 1 -16 -3 -40 -3 -52 1 -12 5 -25 4 -28 -1 -3 -5 -16 -6 -28
-1 -12 4 -35 4 -52 1 -16 -3 -40 -3 -52 1 -12 5 -25 4 -28 -1 -3 -5 -16 -6
-28 -1 -12 4 -35 4 -52 1 -16 -3 -40 -3 -52 1 -12 5 -25 4 -28 -1 -3 -5 -16
-6 -28 -1 -12 4 -35 4 -52 1 -16 -3 -40 -3 -52 1 -12 5 -25 4 -28 -1 -3 -5
-16 -6 -28 -1 -12 4 -35 4 -52 1 -16 -3 -40 -3 -52 1 -12 5 -25 4 -28 -1 -3
-5 -16 -6 -28 -1 -12 4 -35 4 -52 1 -16 -3 -40 -3 -52 1 -12 5 -25 4 -28 -1
-3 -5 -16 -6 -28 -1 -12 4 -35 4 -52 1 -16 -3 -40 -3 -52 1 -12 5 -25 4 -28
-1 -3 -5 -16 -6 -28 -1 -12 4 -35 4 -52 1 -16 -3 -40 -3 -52 1 -12 5 -25 4
-28 -1 -3 -5 -16 -6 -28 -1 -12 4 -33 5 -47 1 -14 -4 -37 -3 -52 1 -16 4 -30
3 -34 -2 -3 -5 -10 -6 -16 -3 -6 4 -33 6 -62 5 -123 -3 -145 -3 -155 4 -6 3
-11 1 -11 -5 0 -6 -5 -8 -11 -4 -10 6 -88 8 -114 4 -26 -5 -52 -4 -77 2 -15 3
-30 2 -34 -3 -3 -5 -10 -6 -16 -3 -6 4 -33 6 -62 5 -123 -3 -145 -3 -155 4 -6
3 -11 1 -11 -5 0 -6 -5 -8 -11 -4 -10 6 -88 8 -114 4 -26 -5 -52 -4 -77 2 -15
3 -30 2 -34 -3 -3 -5 -10 -6 -16 -3 -6 4 -33 6 -62 5 -123 -3 -145 -3 -155 4
-6 3 -11 1 -11 -5 0 -6 -5 -8 -11 -4 -10 6 -88 8 -114 4 -26 -5 -52 -4 -77 2
-15 3 -30 2 -34 -3 -3 -5 -10 -6 -16 -3 -6 4 -33 6 -62 5 -123 -3 -145 -3
-155 4 -6 3 -11 2 -11 -4 0 -6 -6 -8 -13 -5 -17 6 -86 11 -91 7z"/>
<path d="M8567 4994 c-1 -1 -38 -4 -82 -7 -93 -7 -128 -13 -210 -34 -33 -8
-64 -16 -70 -18 -55 -13 -239 -103 -304 -148 -160 -113 -304 -275 -385 -434
-25 -50 -66 -147 -70 -168 -2 -5 -8 -30 -15 -54 -35 -124 -46 -310 -27 -456
21 -158 127 -413 203 -493 7 -7 13 -18 13 -23 0 -22 210 -217 290 -270 108
-70 241 -132 333 -155 9 -2 27 -7 40 -10 12 -3 33 -8 47 -10 14 -2 52 -9 85
-14 64 -11 247 -14 286 -6 13 3 42 7 64 10 53 6 125 23 161 37 16 6 40 13 53
15 13 3 34 10 45 17 12 6 23 12 26 12 24 6 115 53 173 91 143 92 269 218 354
351 23 38 47 74 53 81 6 6 9 12 6 12 -3 0 5 21 18 48 29 57 72 183 80 234 3
21 10 55 15 77 9 41 7 298 -3 341 -6 28 -14 65 -20 95 -8 38 -45 143 -61 174
-8 17 -12 31 -8 31 5 0 3 4 -3 8 -6 4 -25 34 -42 67 -64 121 -163 235 -303
350 -67 56 -262 161 -334 180 -16 5 -32 9 -35 10 -3 1 -25 8 -50 15 -25 7 -47
14 -50 15 -38 9 -267 34 -273 29z"/>
<path d="M1885 4975 c-101 -18 -179 -36 -190 -45 -5 -4 -32 -15 -60 -24 -27
-9 -70 -27 -94 -41 -23 -14 -49 -25 -56 -25 -7 0 -15 -4 -17 -8 -1 -4 -21 -19
-42 -32 -86 -52 -215 -169 -276 -250 -19 -25 -37 -47 -40 -50 -6 -5 -37 -52
-57 -85 -32 -53 -93 -190 -93 -208 0 -7 -3 -17 -7 -21 -4 -3 -8 -12 -9 -19 -2
-7 -6 -23 -9 -37 -42 -164 -50 -353 -20 -497 3 -13 7 -35 10 -50 8 -39 47
-156 57 -168 4 -5 8 -16 8 -25 0 -9 5 -21 12 -28 6 -6 13 -19 14 -27 4 -24
128 -205 181 -262 62 -67 174 -163 190 -163 7 0 13 -4 13 -8 0 -5 19 -19 43
-32 23 -12 50 -30 60 -38 9 -8 17 -12 17 -8 0 4 12 -1 28 -12 15 -11 38 -23
52 -27 14 -4 39 -13 55 -20 62 -25 142 -46 240 -63 34 -6 321 -7 365 -2 36 5
187 42 205 50 11 6 40 17 64 25 25 9 65 27 89 40 25 14 51 25 58 25 8 0 14 4
14 9 0 5 9 13 20 16 11 3 26 12 32 18 7 7 32 25 55 41 37 24 186 167 218 208
85 106 186 304 210 410 26 116 35 181 39 278 2 52 -9 177 -20 229 -3 14 -7 37
-10 51 -11 56 -49 160 -86 234 -75 151 -172 273 -304 385 -36 31 -150 111
-157 111 -4 0 -28 13 -54 28 -47 27 -204 88 -251 97 -13 2 -31 7 -40 9 -69 22
-357 29 -457 11z"/>
</g>
</svg>
