<?xml version="1.0" encoding="utf-8"?>
<!-- Generator: Adobe Illustrator 25.4.1, SVG Export Plug-In . SVG Version: 6.00 Build 0)  -->
<svg version="1.1" id="Layer_1" xmlns="http://www.w3.org/2000/svg" xmlns:xlink="http://www.w3.org/1999/xlink" x="0px" y="0px"
	 viewBox="0 0 91 36" style="enable-background:new 0 0 91 36;" xml:space="preserve">
<style type="text/css">
	.st0{fill:#33334F;}
</style>
<path class="st0" d="M7.7,24.2c-0.7,0-1.1-0.4-1.4-1.1L1.1,8.4C1,8,1,7.6,1.2,7.3c0.2-0.3,0.5-0.4,1-0.4C2.5,6.9,2.8,7,3,7.2
	c0.2,0.2,0.4,0.4,0.5,0.8l4.2,12.5L12.1,8c0.3-0.7,0.7-1.1,1.3-1.1c0.3,0,0.6,0.1,0.7,0.3c0.2,0.2,0.4,0.4,0.5,0.8l4.3,12.6
	l4.3-12.6c0.1-0.3,0.3-0.6,0.5-0.7c0.2-0.2,0.5-0.3,0.8-0.3c0.4,0,0.7,0.1,0.9,0.4c0.2,0.3,0.2,0.6,0.1,1l-5.2,14.7
	c-0.1,0.4-0.3,0.6-0.5,0.8c-0.2,0.2-0.5,0.3-0.8,0.3c-0.4,0-0.7-0.1-0.9-0.3c-0.2-0.2-0.4-0.4-0.5-0.8l-4.3-12.2L9,23.1
	c-0.1,0.4-0.3,0.6-0.5,0.8C8.3,24.1,8,24.2,7.7,24.2z M30.6,24.2c-0.8,0-1.5-0.2-2.2-0.5s-1.2-0.8-1.5-1.3c-0.4-0.5-0.6-1.2-0.6-1.8
	c0-0.9,0.2-1.5,0.6-2c0.4-0.5,1.2-0.9,2.2-1.1c1-0.2,2.4-0.3,4.1-0.3h0.8v-0.6c0-0.9-0.2-1.6-0.6-2c-0.4-0.4-1-0.6-1.9-0.6
	c-0.5,0-1,0.1-1.6,0.2c-0.5,0.1-1.1,0.3-1.7,0.6c-0.3,0.2-0.6,0.2-0.8,0.1c-0.2-0.1-0.4-0.3-0.4-0.5s-0.1-0.5,0-0.7
	c0.1-0.3,0.3-0.4,0.6-0.6c0.7-0.3,1.4-0.6,2.1-0.7c0.7-0.2,1.3-0.2,1.9-0.2c1.6,0,2.8,0.4,3.6,1.2c0.8,0.8,1.2,1.9,1.2,3.6v6.2
	c0,0.8-0.4,1.2-1.1,1.2c-0.8,0-1.2-0.4-1.2-1.2v-0.9c-0.3,0.7-0.7,1.2-1.3,1.6C32.2,24,31.5,24.2,30.6,24.2z M31.1,22.5
	c0.9,0,1.6-0.3,2.2-0.9s0.9-1.4,0.9-2.3v-0.6h-0.8c-1.2,0-2.1,0.1-2.8,0.2c-0.7,0.1-1.1,0.3-1.4,0.6c-0.3,0.3-0.4,0.6-0.4,1.1
	c0,0.6,0.2,1.1,0.6,1.5C29.8,22.3,30.4,22.5,31.1,22.5z M42.4,28.5c-0.4,0-0.8-0.2-0.9-0.5c-0.2-0.3-0.1-0.7,0-1.1l1.4-3.2l-4.3-9.9
	c-0.2-0.4-0.2-0.8,0-1.2c0.2-0.3,0.6-0.5,1.1-0.5c0.3,0,0.5,0.1,0.7,0.2c0.2,0.1,0.4,0.4,0.5,0.7l3.3,8.1l3.3-8.1
	c0.1-0.4,0.3-0.6,0.5-0.7c0.2-0.1,0.5-0.2,0.8-0.2c0.4,0,0.7,0.2,0.9,0.5c0.2,0.3,0.2,0.7,0,1.1l-6,13.8c-0.2,0.4-0.3,0.6-0.6,0.7
	C43,28.4,42.7,28.5,42.4,28.5z M56.4,24.2c-1,0-1.9-0.2-2.7-0.7c-0.8-0.5-1.4-1.2-1.8-2.1c-0.4-0.9-0.6-2-0.6-3.2
	c0-1.2,0.2-2.3,0.6-3.2c0.4-0.9,1-1.6,1.8-2.1c0.8-0.5,1.7-0.7,2.7-0.7c0.9,0,1.7,0.2,2.4,0.6s1.2,0.9,1.5,1.6V8.1
	c0-0.8,0.4-1.2,1.2-1.2c0.8,0,1.2,0.4,1.2,1.2v14.8c0,0.8-0.4,1.2-1.2,1.2s-1.2-0.4-1.2-1.2V22c-0.4,0.7-0.9,1.2-1.6,1.6
	C58,24,57.3,24.2,56.4,24.2z M57,22.3c1,0,1.8-0.4,2.4-1.1c0.6-0.7,0.9-1.8,0.9-3.1c0-1.4-0.3-2.4-0.9-3.1C58.8,14.3,58,14,57,14
	c-1,0-1.8,0.4-2.4,1.1c-0.6,0.7-0.9,1.7-0.9,3.1c0,1.4,0.3,2.4,0.9,3.1C55.2,22,56,22.3,57,22.3z M71.6,24.2c-1.9,0-3.4-0.5-4.5-1.6
	c-1.1-1.1-1.7-2.6-1.7-4.4c0-1.2,0.2-2.3,0.7-3.2c0.5-0.9,1.2-1.6,2-2.2c0.9-0.5,1.9-0.8,3-0.8c1.6,0,2.9,0.5,3.8,1.6
	c0.9,1,1.4,2.4,1.4,4.2c0,0.5-0.3,0.8-1,0.8h-7.6c0.2,2.4,1.5,3.6,3.9,3.6c0.5,0,1-0.1,1.5-0.2c0.5-0.1,1-0.4,1.5-0.7
	c0.3-0.2,0.6-0.3,0.9-0.2c0.3,0,0.4,0.2,0.6,0.4c0.1,0.2,0.1,0.4,0,0.7c-0.1,0.3-0.2,0.5-0.6,0.7c-0.5,0.4-1.2,0.6-1.9,0.8
	C72.9,24.1,72.2,24.2,71.6,24.2z M71.2,13.8c-1,0-1.8,0.3-2.4,0.9c-0.6,0.6-1,1.5-1.1,2.5h6.6c0-1.1-0.3-1.9-0.9-2.5
	C72.9,14.1,72.2,13.8,71.2,13.8z M79.3,24.1c-0.4,0-0.7-0.2-0.9-0.5c-0.2-0.4-0.1-0.8,0.3-1.2l3.6-4.5l-3.3-4.1
	c-0.4-0.4-0.5-0.8-0.3-1.2s0.5-0.5,0.9-0.5c0.3,0,0.6,0.1,0.7,0.2c0.2,0.1,0.4,0.3,0.6,0.5l2.8,3.5l2.8-3.5c0.2-0.2,0.4-0.4,0.6-0.5
	c0.2-0.1,0.4-0.2,0.7-0.2c0.4,0,0.7,0.2,0.9,0.5s0.1,0.8-0.3,1.2L85,18l3.6,4.4c0.4,0.4,0.4,0.8,0.2,1.2c-0.2,0.4-0.5,0.5-0.9,0.5
	c-0.5,0-1-0.2-1.3-0.7l-3-3.8l-3,3.8c-0.2,0.2-0.4,0.4-0.6,0.5S79.6,24.1,79.3,24.1z"/>
</svg>
